<svg viewBox="0 0 2188.76 434.7" xmlns="http://www.w3.org/2000/svg"><path d="m0 22.33c30.13-5 72.45-8.69 132.08-8.69 60.27 0 103.23 11.17 132.08 33.49 28.21 21.08 46.17 55.81 46.17 96.74s-13.47 76.27-39.76 99.22c-33.34 29.76-82.71 44-140.41 44-12.83 0-24.37-.62-33.35-2.47v150.08h-96.81zm96.81 189.75c8.34 1.86 18 2.48 32.7 2.48 51.94 0 84-25.43 84-67.59 0-38.46-27.57-61.39-76.95-61.39-19.23 0-32.69 1.24-39.75 3.09zm266.69 19.22c0-44.64-.64-73.79-2.56-99.84h83.35l3.85 55.81h2.56c16-44.64 53.86-63.24 84.64-63.24a100.39 100.39 0 0 1 20.52 1.86v88.67a150.56 150.56 0 0 0 -26.29-2.48c-35.91 0-60.27 18.6-66.68 47.75a107 107 0 0 0 -1.89 21.08v153.79h-97.5zm344.28-184.17c0 26-19.88 47.13-52.58 47.13-30.77 0-50.65-21.09-50.65-47.13 0-26.67 20.52-47.13 51.93-47.13s50.66 20.46 51.3 47.13zm-100.67 387.57v-303.24h97.46v303.24zm175.65-206.5c0-37.83-1.28-69.45-2.56-96.74h84.63l4.49 42.17h1.93c12.82-19.84 44.23-49 96.81-49 64.12 0 112.21 41.54 112.21 130.84v179.23h-97.46v-168.06c0-39.06-14.1-65.72-49.37-65.72-26.93 0-43 18-50 35.34-2.57 6.21-3.21 14.88-3.21 23.57v174.87h-97.47zm450.34-132.08h-116.7v-79.38h332.13v79.38h-118v338.58h-97.43z" fill="#1f59a7"/><path d="m1763.06 258h-159v99.22h177.6v77.48h-275.07v-418h266.09v77.56h-168.63v86.81h159zm312.85 176.7-39.11-75.65c-16-29.15-26.29-50.86-38.47-75h-1.28c-9 24.17-19.88 45.88-34 75l-35.25 75.65h-111.56l125-211.46-120.52-206.5h112.21l37.83 76.26c12.82 25.43 22.44 45.9 32.7 69.46h1.28c10.26-26.66 18.59-45.26 29.49-69.46l36.55-76.27h111.56l-121.82 204 128.24 213.97z" fill="#e73332"/></svg>